PathFileType	4	(X/Y/Z)	test111.trc
DataRate	CameraRate	NumFrames	NumMarkers	Units	OrigDataRate	OrigDataStartFrame	OrigNumFrames
120	120	23	27	m	120	1	1010
Frame#	Time	RHip			RKnee			RAnkle			RBigToe			RSmallToe			RHeel			LHip			LKnee			LAnkle			LBigToe			LSmallToe			LHeel			Nose			REye			LEye			RShoulder			RElbow			RWrist			RThumb			RIndex			RPinky			LShoulder			LElbow			LWrist			LThumb			LIndex			LPinky		
		X	Y	Z	X	Y	Z	X	Y	Z	X	Y	Z	X	Y	Z	X	Y	Z	X	Y	Z	X	Y	Z	X	Y	Z	X	Y	Z	X	Y	Z	X	Y	Z	X	Y	Z	X	Y	Z	X	Y	Z	X	Y	Z	X	Y	Z	X	Y	Z	X	Y	Z	X	Y	Z	X	Y	Z	X	Y	Z	X	Y	Z	X	Y	Z	X	Y	Z	X	Y	Z	X	Y	Z
1	0.008333333333333333	0.038	0.191	0.885	0.015	0.207	0.494	-0.023	0.26	0.094	-0.059	0.113	0.024	-0.077	0.118	0.045	-0.008	0.283	0.045	0.261	0.192	0.879	0.268	0.233	0.469	0.279	0.312	0.093	0.32	0.087	0.019	0.366	0.14	0.01	0.287	0.332	0.045	0.147	0.093	1.605	0.105	0.092	1.633	0.17	0.113	1.647	-0.011	0.213	1.416	-0.278	0.21	1.412	-0.56	0.183	1.419	-0.661	0.189	1.398	-0.672	0.196	1.411	-0.609	0.167	1.392	0.345	0.227	1.421	0.61	0.226	1.384	0.86	0.183	1.363	0.889	0.183	1.37	0.942	0.185	1.377	0.954	0.206	1.333
2	0.016666666666666666	0.037	0.197	0.888	0.012	0.21	0.492	-0.026	0.261	0.092	-0.055	0.103	0.023	-0.077	0.115	0.041	-0.014	0.288	0.041	0.261	0.199	0.884	0.269	0.23	0.471	0.284	0.307	0.09	0.319	0.086	0.018	0.362	0.137	0.012	0.288	0.33	0.04	0.145	0.088	1.603	0.108	0.091	1.632	0.169	0.108	1.643	-0.014	0.217	1.417	-0.28	0.209	1.412	-0.554	0.177	1.419	-0.647	0.171	1.4	-0.664	0.18	1.414	-0.614	0.167	1.397	0.343	0.232	1.422	0.607	0.225	1.386	0.858	0.184	1.363	0.894	0.177	1.368	0.944	0.181	1.375	0.952	0.202	1.337
3	0.025	0.036	0.202	0.89	0.008	0.213	0.49	-0.029	0.263	0.09	-0.051	0.093	0.022	-0.077	0.112	0.037	-0.021	0.292	0.037	0.26	0.204	0.887	0.27	0.227	0.473	0.289	0.301	0.087	0.319	0.086	0.018	0.358	0.134	0.014	0.29	0.327	0.036	0.144	0.084	1.601	0.111	0.09	1.63	0.168	0.104	1.639	-0.017	0.22	1.418	-0.281	0.208	1.412	-0.548	0.171	1.419	-0.633	0.154	1.402	-0.657	0.164	1.417	-0.619	0.167	1.402	0.342	0.235	1.423	0.605	0.224	1.389	0.856	0.184	1.364	0.9	0.172	1.366	0.947	0.177	1.373	0.95	0.197	1.341
4	0.03333333333333333	0.035	0.206	0.892	0.006	0.216	0.488	-0.031	0.264	0.088	-0.047	0.085	0.021	-0.077	0.109	0.033	-0.026	0.296	0.033	0.26	0.21	0.891	0.271	0.225	0.475	0.294	0.296	0.085	0.318	0.085	0.017	0.355	0.132	0.016	0.291	0.325	0.033	0.142	0.08	1.6	0.113	0.088	1.629	0.167	0.1	1.635	-0.02	0.223	1.419	-0.283	0.207	1.412	-0.543	0.166	1.419	-0.62	0.14	1.403	-0.65	0.151	1.42	-0.622	0.166	1.407	0.341	0.239	1.424	0.603	0.223	1.391	0.854	0.185	1.365	0.905	0.167	1.365	0.949	0.174	1.372	0.949	0.194	1.344
5	0.041666666666666664	0.034	0.21	0.894	0.004	0.218	0.487	-0.033	0.264	0.086	-0.044	0.078	0.021	-0.077	0.107	0.03	-0.03	0.299	0.031	0.26	0.214	0.893	0.272	0.222	0.477	0.297	0.292	0.083	0.318	0.085	0.017	0.352	0.13	0.017	0.292	0.323	0.03	0.141	0.077	1.599	0.115	0.087	1.628	0.166	0.097	1.632	-0.022	0.226	1.42	-0.284	0.206	1.412	-0.538	0.162	1.419	-0.61	0.128	1.405	-0.645	0.139	1.422	-0.625	0.166	1.41	0.34	0.242	1.424	0.601	0.222	1.392	0.852	0.185	1.365	0.909	0.162	1.363	0.951	0.171	1.37	0.947	0.191	1.346
6	0.05	0.034	0.212	0.896	0.002	0.219	0.486	-0.035	0.265	0.085	-0.042	0.073	0.02	-0.078	0.105	0.028	-0.034	0.301	0.029	0.26	0.217	0.896	0.273	0.221	0.478	0.3	0.289	0.081	0.317	0.085	0.017	0.35	0.128	0.018	0.292	0.321	0.028	0.141	0.075	1.598	0.117	0.087	1.627	0.166	0.095	1.63	-0.024	0.228	1.421	-0.285	0.205	1.412	-0.535	0.159	1.419	-0.602	0.118	1.406	-0.64	0.13	1.424	-0.628	0.165	1.413	0.339	0.244	1.425	0.6	0.222	1.394	0.851	0.185	1.365	0.912	0.159	1.362	0.952	0.169	1.369	0.946	0.188	1.348
7	0.058333333333333334	0.033	0.214	0.897	0.0	0.221	0.486	-0.036	0.265	0.084	-0.04	0.069	0.02	-0.078	0.104	0.026	-0.037	0.303	0.027	0.259	0.22	0.897	0.274	0.22	0.479	0.302	0.287	0.08	0.317	0.084	0.016	0.348	0.127	0.019	0.293	0.32	0.026	0.14	0.073	1.597	0.118	0.086	1.626	0.166	0.093	1.628	-0.025	0.23	1.421	-0.286	0.205	1.412	-0.532	0.156	1.419	-0.595	0.111	1.406	-0.637	0.123	1.425	-0.629	0.165	1.415	0.339	0.246	1.425	0.599	0.221	1.394	0.85	0.186	1.366	0.915	0.157	1.361	0.954	0.167	1.368	0.945	0.186	1.35
8	0.06666666666666667	0.033	0.216	0.898	0.0	0.222	0.485	-0.037	0.266	0.083	-0.039	0.067	0.019	-0.078	0.103	0.024	-0.038	0.304	0.026	0.259	0.221	0.898	0.274	0.219	0.48	0.304	0.285	0.079	0.317	0.084	0.016	0.347	0.126	0.02	0.293	0.319	0.025	0.14	0.072	1.597	0.119	0.086	1.626	0.166	0.092	1.627	-0.027	0.231	1.422	-0.286	0.204	1.412	-0.53	0.154	1.419	-0.591	0.105	1.407	-0.634	0.118	1.426	-0.63	0.164	1.417	0.339	0.247	1.425	0.598	0.221	1.395	0.85	0.186	1.366	0.916	0.156	1.361	0.954	0.166	1.368	0.945	0.185	1.351
9	0.075	0.033	0.217	0.898	0.0	0.222	0.485	-0.038	0.266	0.083	-0.038	0.065	0.019	-0.077	0.102	0.024	-0.039	0.305	0.025	0.259	0.223	0.899	0.274	0.218	0.48	0.305	0.284	0.078	0.316	0.084	0.016	0.346	0.126	0.02	0.293	0.318	0.024	0.14	0.071	1.597	0.119	0.085	1.626	0.166	0.091	1.626	-0.027	0.232	1.422	-0.287	0.204	1.412	-0.529	0.153	1.419	-0.588	0.102	1.407	-0.633	0.115	1.427	-0.631	0.164	1.418	0.338	0.247	1.425	0.598	0.22	1.396	0.85	0.186	1.366	0.917	0.155	1.36	0.955	0.165	1.367	0.945	0.184	1.352
10	0.08333333333333333	0.033	0.217	0.899	-0.001	0.222	0.485	-0.038	0.266	0.083	-0.037	0.064	0.019	-0.077	0.102	0.023	-0.04	0.305	0.025	0.259	0.223	0.9	0.274	0.218	0.48	0.305	0.283	0.078	0.316	0.084	0.016	0.346	0.125	0.02	0.293	0.318	0.024	0.14	0.07	1.597	0.12	0.085	1.626	0.166	0.091	1.625	-0.028	0.232	1.422	-0.287	0.204	1.412	-0.528	0.153	1.419	-0.586	0.1	1.408	-0.632	0.113	1.427	-0.631	0.163	1.418	0.338	0.248	1.426	0.597	0.22	1.396	0.849	0.187	1.366	0.918	0.154	1.36	0.956	0.165	1.367	0.945	0.184	1.352
11	0.09166666666666666	0.033	0.217	0.899	-0.001	0.223	0.485	-0.038	0.266	0.083	-0.037	0.063	0.019	-0.077	0.101	0.023	-0.04	0.305	0.025	0.259	0.224	0.9	0.274	0.218	0.48	0.305	0.283	0.078	0.316	0.084	0.016	0.346	0.125	0.02	0.293	0.317	0.023	0.14	0.07	1.597	0.12	0.085	1.626	0.166	0.09	1.625	-0.028	0.233	1.422	-0.287	0.204	1.412	-0.528	0.152	1.419	-0.586	0.099	1.408	-0.631	0.112	1.427	-0.632	0.163	1.419	0.338	0.248	1.426	0.597	0.22	1.396	0.849	0.187	1.366	0.918	0.154	1.36	0.956	0.165	1.367	0.945	0.184	1.352
12	0.1	0.033	0.217	0.899	-0.001	0.223	0.485	-0.038	0.266	0.083	-0.037	0.063	0.019	-0.077	0.101	0.023	-0.04	0.305	0.025	0.259	0.224	0.9	0.274	0.218	0.48	0.305	0.283	0.078	0.316	0.084	0.016	0.345	0.125	0.02	0.293	0.317	0.023	0.14	0.07	1.597	0.12	0.085	1.626	0.166	0.09	1.625	-0.028	0.233	1.422	-0.287	0.204	1.412	-0.528	0.153	1.42	-0.586	0.099	1.408	-0.631	0.112	1.427	-0.632	0.164	1.418	0.338	0.248	1.426	0.597	0.22	1.396	0.849	0.187	1.366	0.918	0.155	1.36	0.956	0.165	1.367	0.945	0.184	1.352
13	0.10833333333333334	0.033	0.217	0.899	-0.001	0.223	0.486	-0.038	0.266	0.083	-0.037	0.064	0.019	-0.077	0.101	0.023	-0.04	0.305	0.025	0.259	0.224	0.9	0.274	0.218	0.48	0.304	0.283	0.078	0.316	0.084	0.016	0.345	0.126	0.02	0.293	0.317	0.024	0.14	0.07	1.597	0.12	0.085	1.626	0.166	0.09	1.625	-0.029	0.233	1.422	-0.288	0.204	1.412	-0.529	0.153	1.42	-0.586	0.1	1.408	-0.632	0.113	1.427	-0.632	0.164	1.418	0.338	0.247	1.426	0.597	0.22	1.396	0.849	0.187	1.366	0.918	0.155	1.36	0.956	0.166	1.367	0.945	0.184	1.352
14	0.11666666666666667	0.033	0.217	0.899	-0.001	0.222	0.486	-0.038	0.265	0.083	-0.037	0.064	0.019	-0.077	0.101	0.023	-0.04	0.304	0.025	0.259	0.223	0.899	0.274	0.218	0.48	0.304	0.284	0.078	0.316	0.084	0.016	0.346	0.126	0.02	0.293	0.318	0.024	0.14	0.07	1.597	0.12	0.085	1.626	0.166	0.091	1.626	-0.029	0.233	1.422	-0.288	0.204	1.412	-0.529	0.154	1.42	-0.587	0.101	1.408	-0.632	0.114	1.427	-0.632	0.165	1.418	0.338	0.247	1.425	0.597	0.22	1.396	0.85	0.187	1.366	0.917	0.155	1.36	0.956	0.166	1.367	0.945	0.185	1.352
15	0.125	0.033	0.217	0.899	-0.001	0.222	0.486	-0.038	0.265	0.083	-0.037	0.064	0.019	-0.076	0.101	0.023	-0.039	0.304	0.025	0.259	0.223	0.899	0.274	0.218	0.48	0.304	0.284	0.078	0.316	0.084	0.016	0.346	0.126	0.02	0.293	0.318	0.024	0.14	0.07	1.597	0.119	0.085	1.626	0.166	0.091	1.626	-0.028	0.232	1.421	-0.288	0.204	1.412	-0.53	0.154	1.42	-0.588	0.102	1.407	-0.633	0.116	1.427	-0.632	0.166	1.418	0.338	0.247	1.425	0.597	0.22	1.395	0.85	0.187	1.366	0.917	0.155	1.36	0.956	0.167	1.367	0.946	0.185	1.351
16	0.13333333333333333	0.033	0.217	0.898	-0.001	0.222	0.486	-0.038	0.265	0.083	-0.038	0.065	0.019	-0.076	0.101	0.024	-0.039	0.304	0.025	0.259	0.223	0.899	0.274	0.218	0.48	0.304	0.284	0.078	0.317	0.084	0.016	0.346	0.126	0.02	0.292	0.318	0.024	0.14	0.071	1.597	0.119	0.086	1.626	0.166	0.091	1.626	-0.028	0.232	1.421	-0.288	0.204	1.412	-0.53	0.155	1.42	-0.589	0.104	1.407	-0.634	0.117	1.427	-0.633	0.167	1.418	0.338	0.247	1.425	0.597	0.22	1.395	0.85	0.187	1.366	0.916	0.156	1.36	0.955	0.167	1.367	0.946	0.186	1.351
17	0.14166666666666666	0.033	0.217	0.898	-0.001	0.222	0.486	-0.038	0.265	0.083	-0.038	0.065	0.019	-0.076	0.101	0.024	-0.039	0.303	0.025	0.259	0.223	0.898	0.274	0.219	0.48	0.303	0.284	0.078	0.317	0.084	0.016	0.347	0.126	0.019	0.292	0.318	0.024	0.14	0.071	1.597	0.119	0.086	1.626	0.166	0.092	1.626	-0.028	0.232	1.421	-0.288	0.204	1.412	-0.531	0.156	1.42	-0.59	0.105	1.407	-0.634	0.118	1.426	-0.633	0.168	1.417	0.338	0.247	1.425	0.597	0.221	1.395	0.85	0.187	1.366	0.916	0.156	1.36	0.955	0.168	1.367	0.946	0.186	1.351
18	0.15	0.033	0.216	0.898	0.0	0.222	0.486	-0.038	0.265	0.083	-0.038	0.065	0.019	-0.076	0.101	0.024	-0.039	0.303	0.025	0.259	0.222	0.898	0.274	0.219	0.479	0.303	0.285	0.078	0.318	0.084	0.016	0.347	0.127	0.019	0.292	0.318	0.024	0.14	0.071	1.598	0.119	0.086	1.626	0.166	0.092	1.627	-0.028	0.232	1.421	-0.288	0.204	1.412	-0.531	0.157	1.42	-0.591	0.106	1.407	-0.635	0.12	1.426	-0.633	0.169	1.417	0.338	0.247	1.425	0.597	0.221	1.395	0.85	0.187	1.366	0.916	0.156	1.36	0.955	0.168	1.367	0.946	0.186	1.351
19	0.15833333333333333	0.033	0.216	0.898	0.0	0.222	0.486	-0.038	0.264	0.083	-0.038	0.065	0.019	-0.076	0.101	0.024	-0.039	0.303	0.025	0.259	0.222	0.898	0.274	0.219	0.479	0.303	0.285	0.078	0.318	0.084	0.016	0.347	0.127	0.019	0.292	0.319	0.024	0.14	0.072	1.598	0.118	0.086	1.626	0.166	0.092	1.627	-0.028	0.232	1.421	-0.288	0.204	1.412	-0.532	0.158	1.42	-0.592	0.107	1.407	-0.636	0.121	1.426	-0.634	0.17	1.417	0.337	0.247	1.425	0.597	0.221	1.395	0.85	0.188	1.366	0.915	0.156	1.36	0.955	0.168	1.367	0.946	0.186	1.351
20	0.16666666666666666	0.033	0.216	0.898	0.0	0.222	0.486	-0.038	0.264	0.084	-0.038	0.065	0.019	-0.076	0.101	0.024	-0.039	0.303	0.025	0.259	0.222	0.898	0.274	0.219	0.479	0.303	0.285	0.078	0.318	0.084	0.016	0.348	0.127	0.019	0.292	0.319	0.024	0.14	0.072	1.598	0.118	0.086	1.626	0.166	0.093	1.627	-0.027	0.232	1.421	-0.288	0.204	1.412	-0.532	0.158	1.42	-0.592	0.108	1.407	-0.636	0.122	1.426	-0.634	0.171	1.417	0.337	0.247	1.425	0.597	0.221	1.394	0.85	0.188	1.366	0.915	0.155	1.36	0.954	0.168	1.367	0.946	0.187	1.351
21	0.175	0.034	0.216	0.898	0.0	0.222	0.486	-0.038	0.264	0.084	-0.038	0.065	0.019	-0.076	0.101	0.024	-0.039	0.303	0.026	0.259	0.222	0.898	0.274	0.219	0.479	0.303	0.285	0.078	0.319	0.083	0.016	0.348	0.126	0.019	0.292	0.319	0.025	0.14	0.072	1.598	0.118	0.086	1.627	0.166	0.093	1.627	-0.027	0.232	1.421	-0.287	0.205	1.412	-0.532	0.159	1.42	-0.593	0.109	1.407	-0.637	0.122	1.426	-0.634	0.171	1.417	0.337	0.247	1.425	0.597	0.222	1.394	0.849	0.188	1.366	0.914	0.155	1.36	0.954	0.168	1.367	0.946	0.187	1.351
22	0.18333333333333332	0.034	0.216	0.898	0.0	0.222	0.486	-0.038	0.264	0.084	-0.039	0.065	0.019	-0.076	0.101	0.024	-0.039	0.303	0.026	0.259	0.222	0.898	0.274	0.219	0.479	0.303	0.285	0.078	0.319	0.083	0.016	0.348	0.126	0.02	0.292	0.319	0.025	0.14	0.072	1.598	0.118	0.086	1.627	0.166	0.093	1.627	-0.027	0.232	1.421	-0.287	0.205	1.412	-0.533	0.159	1.42	-0.593	0.109	1.407	-0.637	0.123	1.426	-0.635	0.172	1.417	0.337	0.247	1.425	0.597	0.222	1.394	0.849	0.188	1.366	0.914	0.155	1.36	0.954	0.168	1.367	0.945	0.187	1.35
23	0.19166666666666668	0.034	0.216	0.898	0.0	0.222	0.486	-0.038	0.264	0.084	-0.039	0.065	0.019	-0.076	0.101	0.024	-0.039	0.303	0.026	0.259	0.222	0.898	0.274	0.219	0.479	0.303	0.285	0.078	0.319	0.083	0.017	0.348	0.126	0.02	0.292	0.319	0.025	0.14	0.072	1.598	0.118	0.087	1.627	0.167	0.093	1.627	-0.027	0.232	1.421	-0.287	0.205	1.412	-0.533	0.16	1.42	-0.593	0.11	1.407	-0.637	0.123	1.426	-0.635	0.172	1.417	0.336	0.247	1.425	0.597	0.222	1.394	0.849	0.188	1.366	0.913	0.154	1.36	0.954	0.168	1.367	0.945	0.187	1.35
